<?xml version="1.0" encoding="UTF-8"?>
<svg width="48px" height="48px" viewBox="0 0 48 48" version="1.1" xmlns="http://www.w3.org/2000/svg" xmlns:xlink="http://www.w3.org/1999/xlink">
    <g id="App" stroke="none" stroke-width="1" fill="none" fill-rule="evenodd">
        <g id="1280_Sign-In-with-Apple-Buttons" transform="translate(-706.000000, -536.000000)">
            <g id="tranform2" transform="translate(530.000000, 536.000000)">
                <g id="tranform" transform="translate(176.000000, 0.000000)">
                    <circle id="circle" fill="#99A1A8" cx="24" cy="24" r="24"></circle>
                    <g id="email_chatter" transform="translate(10.000000, 13.000000)" fill="#FFFFFF" fill-rule="nonzero">
                        <path d="M13.7411338,13.824 C14.1251338,14.16 14.6531338,14.16 15.0371338,13.824 L28.6211338,1.248 C28.8611338,0.768 28.8131338,0 27.8531338,0 L0.973133835,0.048 C0.253133835,0.048 -0.322866165,0.72 0.205133835,1.296 L13.7411338,13.824 Z M28.7651338,6.624 C28.7651338,6 27.9971338,5.664 27.5651338,6.096 L17.0051338,15.888 C16.2851338,16.56 15.3731338,16.896 14.4131338,16.896 C13.4531338,16.896 12.5411338,16.56 11.8211338,15.888 L1.21313383,6.096 C0.733133835,5.664 0.0131338348,6 0.0131338348,6.624 L0.0131338348,19.104 C0.0131338348,20.688 1.30913383,21.984 2.89313383,21.984 L25.9331338,21.984 C27.5171338,21.984 28.8131338,20.688 28.8131338,19.104 C28.7651338,19.104 28.7651338,10.464 28.7651338,6.624 L28.7651338,6.624 Z" id="形状"></path>
                    </g>
                </g>
            </g>
        </g>
    </g>
</svg>
