<?xml version="1.0" encoding="UTF-8"?>
<svg width="48px" height="48px" viewBox="0 0 48 48" version="1.1" xmlns="http://www.w3.org/2000/svg" xmlns:xlink="http://www.w3.org/1999/xlink">
    <g id="App" stroke="none" stroke-width="1" fill="none" fill-rule="evenodd">
        <g id="1280_Sign-In-with-Apple-Buttons" transform="translate(-618.000000, -536.000000)">
            <g id="tranform2" transform="translate(530.000000, 536.000000)">
                <g id="tranform1" transform="translate(88.000000, 0.000000)">
                    <circle id="circle" fill="#FFFFFF" cx="24" cy="24" r="24"></circle>
                    <g id="super-g" fill="#000000" transform="translate(8.000000, 8.000000)">
                        <path d="M16,6.18666667 C19.0044444,6.18666667 21.0311111,7.48444444 22.1866667,8.56888889 L26.7022222,4.16 C23.9288889,1.58222222 20.32,0 16,0 C9.74222222,0 4.33777778,3.59111111 1.70666667,8.81777778 L6.88,12.8355556 C8.17777778,8.97777778 11.7688889,6.18666667 16,6.18666667 L16,6.18666667 Z" id="Shape" fill="#EA4335"></path>
                        <path d="M31.36,16.3555556 C31.36,15.04 31.2533333,14.08 31.0222222,13.0844444 L16,13.0844444 L16,19.0222222 L24.8177778,19.0222222 C24.64,20.4977778 23.68,22.72 21.5466667,24.2133333 L26.5955556,28.1244444 C29.6177778,25.3333333 31.36,21.2266667 31.36,16.3555556 L31.36,16.3555556 Z" id="Shape" fill="#4285F4"></path>
                        <path d="M6.89777778,19.1644444 C6.56,18.1688889 6.36444444,17.1022222 6.36444444,16 C6.36444444,14.8977778 6.56,13.8311111 6.88,12.8355556 L1.70666667,8.81777778 C0.622222222,10.9866667 0,13.4222222 0,16 C0,18.5777778 0.622222222,21.0133333 1.70666667,23.1822222 L6.89777778,19.1644444 L6.89777778,19.1644444 Z" id="Shape" fill="#FBBC05"></path>
                        <path d="M16,32 C20.32,32 23.9466667,30.5777778 26.5955556,28.1244444 L21.5466667,24.2133333 C20.1955556,25.1555556 18.3822222,25.8133333 16,25.8133333 C11.7688889,25.8133333 8.17777778,23.0222222 6.89777778,19.1644444 L1.72444444,23.1822222 C4.35555556,28.4088889 9.74222222,32 16,32 L16,32 Z" id="Shape" fill="#34A853"></path>
                        <polygon id="Shape" fill="none" points="0 0 32 0 32 32 0 32"></polygon>
                    </g>
                </g>
            </g>
        </g>
    </g>
</svg>
