<svg xmlns="http://www.w3.org/2000/svg" width="40" height="25">
  <g fill="none">
    <path fill="#0033E8" d="M0 0h40v24.186H0z"/>
    <path fill="#FFF" d="M11.128 7.505l-1.24-1.882h-1.26L9.723 7.28h-4.59l1.08-1.661h-1.26L3.729 7.505h.574v3.037h6.242V7.505h.584zm-.185-2.17v-.658H7.97v-.532h2.649l.333-1.013H9.806l-.115.355h-5.62v.658h2.802v.532h-2.99v.658h2.99v1.754H7.97V5.335h2.974zM9.45 8.575H5.395v-.633H9.45v.634zm0 1.301H5.395v-.642H9.45v.642zm-3.72 5.536l-.846-1.833H3.72l.845 1.833h1.162zm-.108 2.573H4.487l-.74 2.996h1.128l.746-2.996zm.122-.319l-.771-1.976H3.81l.771 1.976h1.162zm5.404.842l-1.11-1.922h.975v-.672H9.976v-.959h.86v-.673h-.86v-.693H8.879v.693H7.7v-.693H6.605v.693h-.853v.673h.853v.96H5.58v.67h1.09l-1.097 1.92h.618v2.473h4.573l.316-.676H7.288v-.7h3.184v-1.094h.675zm-1.763.422H7.288v-.905h2.087l.009.905zm-.106-1.586H7.447l.438-.768h.951l.442.768zm-.4-1.43H7.7v-.959h1.18v.96zm13.382 5.48c2.704.05 5.285-1.17 7.024-3.319 1.738-2.149 2.448-4.996 1.932-7.75L22.26 21.394zm-2.856-.54l2.562-3.165c-3.458-.297-5.996-3.958-4.555-7.82a5.132 5.132 0 012.925-2.991c3.356-1.305 6.54.732 7.313 3.783l2.553-3.164c-2.009-3.66-6.34-5.769-10.915-4.16-2.483.876-4.437 2.891-5.295 5.461-1.789 5.372 1.023 10.434 5.41 12.053l.002.004zM37.208 2.926v16.201a1.872 1.872 0 01-.877 1.656 1.734 1.734 0 01-1.822 0 1.872 1.872 0 01-.877-1.656V7.344l3.576-4.419z"/>
  </g>
</svg>
